<mxfile host="Electron" agent="Mozilla/5.0 (Windows NT 10.0; Win64; x64) AppleWebKit/537.36 (KHTML, like Gecko) draw.io/26.0.16 Chrome/132.0.6834.196 Electron/34.2.0 Safari/537.36" version="26.0.16">
  <diagram id="C5RBs43oDa-KdzZeNtuy" name="Page-1">
    <mxGraphModel dx="1434" dy="836" grid="1" gridSize="10" guides="1" tooltips="1" connect="1" arrows="1" fold="1" page="1" pageScale="1" pageWidth="827" pageHeight="1169" math="0" shadow="0">
      <root>
        <mxCell id="WIyWlLk6GJQsqaUBKTNV-0" />
        <mxCell id="WIyWlLk6GJQsqaUBKTNV-1" parent="WIyWlLk6GJQsqaUBKTNV-0" />
        <mxCell id="DaCaSakMD2qxij1LOMQt-2" value="" style="edgeStyle=orthogonalEdgeStyle;rounded=0;orthogonalLoop=1;jettySize=auto;html=1;" edge="1" parent="WIyWlLk6GJQsqaUBKTNV-1" source="DaCaSakMD2qxij1LOMQt-0" target="DaCaSakMD2qxij1LOMQt-1">
          <mxGeometry relative="1" as="geometry" />
        </mxCell>
        <mxCell id="DaCaSakMD2qxij1LOMQt-0" value="" style="ellipse;whiteSpace=wrap;html=1;aspect=fixed;fillColor=#60a917;fontColor=#ffffff;strokeColor=#2D7600;" vertex="1" parent="WIyWlLk6GJQsqaUBKTNV-1">
          <mxGeometry x="40" y="320" width="40" height="40" as="geometry" />
        </mxCell>
        <mxCell id="DaCaSakMD2qxij1LOMQt-14" value="" style="edgeStyle=orthogonalEdgeStyle;rounded=0;orthogonalLoop=1;jettySize=auto;html=1;" edge="1" parent="WIyWlLk6GJQsqaUBKTNV-1" source="DaCaSakMD2qxij1LOMQt-1" target="DaCaSakMD2qxij1LOMQt-13">
          <mxGeometry relative="1" as="geometry" />
        </mxCell>
        <mxCell id="DaCaSakMD2qxij1LOMQt-1" value="Receber sexo&lt;div&gt;&lt;br&gt;&lt;/div&gt;&lt;div&gt;&lt;b&gt;sexo&lt;/b&gt;&lt;/div&gt;" style="whiteSpace=wrap;html=1;" vertex="1" parent="WIyWlLk6GJQsqaUBKTNV-1">
          <mxGeometry x="120" y="310" width="120" height="60" as="geometry" />
        </mxCell>
        <mxCell id="DaCaSakMD2qxij1LOMQt-3" value="" style="ellipse;whiteSpace=wrap;html=1;aspect=fixed;fillColor=#a20025;fontColor=#ffffff;strokeColor=#6F0000;" vertex="1" parent="WIyWlLk6GJQsqaUBKTNV-1">
          <mxGeometry x="1010" y="320" width="40" height="40" as="geometry" />
        </mxCell>
        <mxCell id="DaCaSakMD2qxij1LOMQt-9" value="" style="edgeStyle=orthogonalEdgeStyle;rounded=0;orthogonalLoop=1;jettySize=auto;html=1;" edge="1" parent="WIyWlLk6GJQsqaUBKTNV-1" source="DaCaSakMD2qxij1LOMQt-6" target="DaCaSakMD2qxij1LOMQt-8">
          <mxGeometry relative="1" as="geometry">
            <Array as="points">
              <mxPoint x="560" y="230" />
            </Array>
          </mxGeometry>
        </mxCell>
        <mxCell id="DaCaSakMD2qxij1LOMQt-11" value="" style="edgeStyle=orthogonalEdgeStyle;rounded=0;orthogonalLoop=1;jettySize=auto;html=1;" edge="1" parent="WIyWlLk6GJQsqaUBKTNV-1" source="DaCaSakMD2qxij1LOMQt-6" target="DaCaSakMD2qxij1LOMQt-10">
          <mxGeometry relative="1" as="geometry">
            <Array as="points">
              <mxPoint x="560" y="450" />
            </Array>
          </mxGeometry>
        </mxCell>
        <mxCell id="DaCaSakMD2qxij1LOMQt-24" value="" style="edgeStyle=orthogonalEdgeStyle;rounded=0;orthogonalLoop=1;jettySize=auto;html=1;" edge="1" parent="WIyWlLk6GJQsqaUBKTNV-1" source="DaCaSakMD2qxij1LOMQt-6" target="DaCaSakMD2qxij1LOMQt-22">
          <mxGeometry relative="1" as="geometry" />
        </mxCell>
        <mxCell id="DaCaSakMD2qxij1LOMQt-26" value="" style="edgeStyle=orthogonalEdgeStyle;rounded=0;orthogonalLoop=1;jettySize=auto;html=1;" edge="1" parent="WIyWlLk6GJQsqaUBKTNV-1" source="DaCaSakMD2qxij1LOMQt-6" target="DaCaSakMD2qxij1LOMQt-25">
          <mxGeometry relative="1" as="geometry">
            <Array as="points">
              <mxPoint x="560" y="550" />
            </Array>
          </mxGeometry>
        </mxCell>
        <mxCell id="DaCaSakMD2qxij1LOMQt-6" value="" style="rhombus;whiteSpace=wrap;html=1;" vertex="1" parent="WIyWlLk6GJQsqaUBKTNV-1">
          <mxGeometry x="520" y="300" width="80" height="80" as="geometry" />
        </mxCell>
        <mxCell id="DaCaSakMD2qxij1LOMQt-28" style="edgeStyle=orthogonalEdgeStyle;rounded=0;orthogonalLoop=1;jettySize=auto;html=1;entryX=0.5;entryY=0;entryDx=0;entryDy=0;" edge="1" parent="WIyWlLk6GJQsqaUBKTNV-1" source="DaCaSakMD2qxij1LOMQt-8" target="DaCaSakMD2qxij1LOMQt-3">
          <mxGeometry relative="1" as="geometry" />
        </mxCell>
        <mxCell id="DaCaSakMD2qxij1LOMQt-8" value="Exibir &quot;Você é homem e brasileiro!&quot;" style="whiteSpace=wrap;html=1;" vertex="1" parent="WIyWlLk6GJQsqaUBKTNV-1">
          <mxGeometry x="790" y="200" width="120" height="60" as="geometry" />
        </mxCell>
        <mxCell id="DaCaSakMD2qxij1LOMQt-29" style="edgeStyle=orthogonalEdgeStyle;rounded=0;orthogonalLoop=1;jettySize=auto;html=1;entryX=0;entryY=1;entryDx=0;entryDy=0;" edge="1" parent="WIyWlLk6GJQsqaUBKTNV-1" source="DaCaSakMD2qxij1LOMQt-10" target="DaCaSakMD2qxij1LOMQt-3">
          <mxGeometry relative="1" as="geometry" />
        </mxCell>
        <mxCell id="DaCaSakMD2qxij1LOMQt-10" value="Exibir &quot;Você é mulher e brasileira!&quot;" style="whiteSpace=wrap;html=1;" vertex="1" parent="WIyWlLk6GJQsqaUBKTNV-1">
          <mxGeometry x="790" y="420" width="120" height="60" as="geometry" />
        </mxCell>
        <mxCell id="DaCaSakMD2qxij1LOMQt-16" value="" style="edgeStyle=orthogonalEdgeStyle;rounded=0;orthogonalLoop=1;jettySize=auto;html=1;" edge="1" parent="WIyWlLk6GJQsqaUBKTNV-1" source="DaCaSakMD2qxij1LOMQt-13" target="DaCaSakMD2qxij1LOMQt-6">
          <mxGeometry relative="1" as="geometry" />
        </mxCell>
        <mxCell id="DaCaSakMD2qxij1LOMQt-13" value="Receber nacionalidade brasileiro&lt;div&gt;&lt;br&gt;&lt;/div&gt;&lt;div&gt;&lt;b&gt;brasileiro&lt;/b&gt;&lt;/div&gt;" style="whiteSpace=wrap;html=1;" vertex="1" parent="WIyWlLk6GJQsqaUBKTNV-1">
          <mxGeometry x="320" y="310" width="130" height="60" as="geometry" />
        </mxCell>
        <mxCell id="DaCaSakMD2qxij1LOMQt-27" style="edgeStyle=orthogonalEdgeStyle;rounded=0;orthogonalLoop=1;jettySize=auto;html=1;" edge="1" parent="WIyWlLk6GJQsqaUBKTNV-1" source="DaCaSakMD2qxij1LOMQt-22" target="DaCaSakMD2qxij1LOMQt-3">
          <mxGeometry relative="1" as="geometry" />
        </mxCell>
        <mxCell id="DaCaSakMD2qxij1LOMQt-22" value="Exibir &quot;Você é homem e estrangeiro!&quot;" style="whiteSpace=wrap;html=1;" vertex="1" parent="WIyWlLk6GJQsqaUBKTNV-1">
          <mxGeometry x="790" y="310" width="120" height="60" as="geometry" />
        </mxCell>
        <mxCell id="DaCaSakMD2qxij1LOMQt-30" style="edgeStyle=orthogonalEdgeStyle;rounded=0;orthogonalLoop=1;jettySize=auto;html=1;entryX=0.5;entryY=1;entryDx=0;entryDy=0;" edge="1" parent="WIyWlLk6GJQsqaUBKTNV-1" source="DaCaSakMD2qxij1LOMQt-25" target="DaCaSakMD2qxij1LOMQt-3">
          <mxGeometry relative="1" as="geometry" />
        </mxCell>
        <mxCell id="DaCaSakMD2qxij1LOMQt-25" value="Exibir &quot;Você é mulher e estrangeira!&quot;" style="whiteSpace=wrap;html=1;" vertex="1" parent="WIyWlLk6GJQsqaUBKTNV-1">
          <mxGeometry x="790" y="520" width="120" height="60" as="geometry" />
        </mxCell>
        <mxCell id="DaCaSakMD2qxij1LOMQt-31" value="SE sexo == Homem &amp;amp;&amp;amp; brasileiro == sim" style="text;html=1;align=center;verticalAlign=middle;whiteSpace=wrap;rounded=0;" vertex="1" parent="WIyWlLk6GJQsqaUBKTNV-1">
          <mxGeometry x="600" y="200" width="150" height="30" as="geometry" />
        </mxCell>
        <mxCell id="DaCaSakMD2qxij1LOMQt-32" value="SE sexo == Homem &amp;amp;&amp;amp; brasileiro == nao" style="text;html=1;align=center;verticalAlign=middle;whiteSpace=wrap;rounded=0;" vertex="1" parent="WIyWlLk6GJQsqaUBKTNV-1">
          <mxGeometry x="600" y="310" width="150" height="30" as="geometry" />
        </mxCell>
        <mxCell id="DaCaSakMD2qxij1LOMQt-33" value="SE sexo == Mulher &amp;amp;&amp;amp; brasileiro == sim" style="text;html=1;align=center;verticalAlign=middle;whiteSpace=wrap;rounded=0;" vertex="1" parent="WIyWlLk6GJQsqaUBKTNV-1">
          <mxGeometry x="600" y="420" width="150" height="30" as="geometry" />
        </mxCell>
        <mxCell id="DaCaSakMD2qxij1LOMQt-34" value="SE sexo == Mulher &amp;amp;&amp;amp; brasileiro == sim" style="text;html=1;align=center;verticalAlign=middle;whiteSpace=wrap;rounded=0;" vertex="1" parent="WIyWlLk6GJQsqaUBKTNV-1">
          <mxGeometry x="600" y="520" width="150" height="30" as="geometry" />
        </mxCell>
      </root>
    </mxGraphModel>
  </diagram>
</mxfile>
